<?xml version="1.0" encoding="utf-8"?>
<!-- Generator: Adobe Illustrator 16.0.3, SVG Export Plug-In . SVG Version: 6.00 Build 0)  -->
<!DOCTYPE svg PUBLIC "-//W3C//DTD SVG 1.1//EN" "http://www.w3.org/Graphics/SVG/1.1/DTD/svg11.dtd">
<svg version="1.1" id="Layer_1" xmlns="http://www.w3.org/2000/svg" xmlns:xlink="http://www.w3.org/1999/xlink" x="0px" y="0px"
	 width="202px" height="133px" viewBox="0 0 202 133" style="enable-background:new 0 0 202 133;" xml:space="preserve">
<style type="text/css">
<![CDATA[
	.st0{stroke:#000000;stroke-width:3;stroke-miterlimit:10;}
]]>
</style>
<g>
	<g>
		<path class="st0" d="M109.642,52.497c1.148,33.657-17.313,50.558-45.914,50.558c-30.291,0-51.742-20.541-51.742-47.452
			c0-26.911,21.321-47.192,49.922-47.192c11.83,0,25.221,3.51,33.22,8.779l2.624,18.362h-1.082
			c-3.95-15.177-19.42-23.237-34.63-23.237c-23.141,0-40.302,18.461-40.302,43.032c0,24.571,17.031,43.812,42.642,43.812
			c25.741,0,43.941-17.291,43.964-46.652L109.642,52.497z"/>
	</g>
	<g>
		<path class="st0" d="M172.119,36.376c5.502-0.03,13.212-1.31,15.807-2.313l-3.397,15.987l-1.275-0.019l0.481-2.266
			c0.867-4.079-1.645-7.4-5.642-7.576H153.99l-16.189,76.167c-0.796,4.382,2.047,7.895,6.465,7.895h1.607l-0.25,1.272h-27.84
			l0.291-1.272h1.609c4.383,0,8.684-3.456,9.794-7.79l16.212-76.271H119.15c-13.611,0-23.023,10.179-19.598,20.985L98.4,61.81
			c-7.066-11.626,4.643-25.433,21.561-25.433L172.119,36.376z"/>
	</g>
</g>
</svg>
